<svg width="25" height="25" viewBox="0 0 25 25" fill="none" xmlns="http://www.w3.org/2000/svg">
<path d="M22.9166 22.9166H2.08325" stroke="#2A5389" stroke-width="1.5" stroke-linecap="round"/>
<path d="M2.08325 11.4583L10.5477 4.68673C11.6891 3.77369 13.3108 3.77369 14.4521 4.68673L22.9166 11.4583" stroke="#2A5389" stroke-width="1.5" stroke-linecap="round"/>
<path d="M16.1458 5.72917V3.64583C16.1458 3.35819 16.379 3.125 16.6666 3.125H19.2708C19.5584 3.125 19.7916 3.35819 19.7916 3.64583V8.85417" stroke="#2A5389" stroke-width="1.5" stroke-linecap="round"/>
<path d="M4.16675 22.9167V9.89587" stroke="#2A5389" stroke-width="1.5" stroke-linecap="round"/>
<path d="M20.8333 22.9167V9.89587" stroke="#2A5389" stroke-width="1.5" stroke-linecap="round"/>
<path d="M15.625 22.9167V17.7084C15.625 16.2352 15.625 15.4987 15.1674 15.041C14.7097 14.5834 13.9731 14.5834 12.5 14.5834C11.0269 14.5834 10.2903 14.5834 9.83265 15.041C9.375 15.4987 9.375 16.2352 9.375 17.7084V22.9167" stroke="#2A5389" stroke-width="1.5"/>
<path d="M14.5834 9.89583C14.5834 11.0465 13.6507 11.9792 12.5001 11.9792C11.3495 11.9792 10.4167 11.0465 10.4167 9.89583C10.4167 8.74524 11.3495 7.8125 12.5001 7.8125C13.6507 7.8125 14.5834 8.74524 14.5834 9.89583Z" stroke="#2A5389" stroke-width="1.5"/>
</svg>
