<svg width="25" height="25" viewBox="0 0 25 25" fill="none" xmlns="http://www.w3.org/2000/svg">
<path d="M3.12492 21.875H2.08326C2.08326 22.4504 2.54963 22.9167 3.12492 22.9167V21.875ZM21.8749 21.875V22.9167C22.4502 22.9167 22.9166 22.4504 22.9166 21.875H21.8749ZM6.24992 6.25005C5.67463 6.25005 5.20826 6.71642 5.20826 7.29171C5.20826 7.867 5.67463 8.33338 6.24992 8.33338V6.25005ZM7.29159 8.33338C7.86688 8.33338 8.33326 7.867 8.33326 7.29171C8.33326 6.71642 7.86688 6.25005 7.29159 6.25005V8.33338ZM11.4583 6.25005C10.8829 6.25005 10.4166 6.71642 10.4166 7.29171C10.4166 7.867 10.8829 8.33338 11.4583 8.33338V6.25005ZM12.4999 8.33338C13.0752 8.33338 13.5416 7.867 13.5416 7.29171C13.5416 6.71642 13.0752 6.25005 12.4999 6.25005V8.33338ZM6.24992 9.37505C5.67463 9.37505 5.20826 9.84142 5.20826 10.4167C5.20826 10.992 5.67463 11.4584 6.24992 11.4584V9.37505ZM7.29159 11.4584C7.86688 11.4584 8.33326 10.992 8.33326 10.4167C8.33326 9.84142 7.86688 9.37505 7.29159 9.37505V11.4584ZM11.4583 9.37505C10.8829 9.37505 10.4166 9.84142 10.4166 10.4167C10.4166 10.992 10.8829 11.4584 11.4583 11.4584V9.37505ZM12.4999 11.4584C13.0752 11.4584 13.5416 10.992 13.5416 10.4167C13.5416 9.84142 13.0752 9.37505 12.4999 9.37505V11.4584ZM6.24992 12.5C5.67463 12.5 5.20826 12.9664 5.20826 13.5417C5.20826 14.117 5.67463 14.5834 6.24992 14.5834V12.5ZM7.29159 14.5834C7.86688 14.5834 8.33326 14.117 8.33326 13.5417C8.33326 12.9664 7.86688 12.5 7.29159 12.5V14.5834ZM11.4583 12.5C10.8829 12.5 10.4166 12.9664 10.4166 13.5417C10.4166 14.117 10.8829 14.5834 11.4583 14.5834V12.5ZM12.4999 14.5834C13.0752 14.5834 13.5416 14.117 13.5416 13.5417C13.5416 12.9664 13.0752 12.5 12.4999 12.5V14.5834ZM11.4583 21.875V22.9167H12.4999V21.875H11.4583ZM7.29159 21.875H6.24992V22.9167H7.29159V21.875ZM18.7499 10.4167C18.1746 10.4167 17.7083 10.8831 17.7083 11.4584C17.7083 12.0337 18.1746 12.5 18.7499 12.5V10.4167ZM18.7603 12.5C19.3357 12.5 19.802 12.0337 19.802 11.4584C19.802 10.8831 19.3357 10.4167 18.7603 10.4167V12.5ZM18.7499 13.5417C18.1746 13.5417 17.7083 14.0081 17.7083 14.5834C17.7083 15.1587 18.1746 15.625 18.7499 15.625V13.5417ZM18.7603 15.625C19.3357 15.625 19.802 15.1587 19.802 14.5834C19.802 14.0081 19.3357 13.5417 18.7603 13.5417V15.625ZM18.7499 16.6667C18.1746 16.6667 17.7083 17.1331 17.7083 17.7084C17.7083 18.2837 18.1746 18.75 18.7499 18.75V16.6667ZM18.7603 18.75C19.3357 18.75 19.802 18.2837 19.802 17.7084C19.802 17.1331 19.3357 16.6667 18.7603 16.6667V18.75ZM2.08326 4.79171V21.875H4.16659V4.79171H2.08326ZM4.79159 4.16671H13.9583V2.08338H4.79159V4.16671ZM14.5833 4.79171V7.29171H16.6666V4.79171H14.5833ZM14.5833 7.29171V21.875H16.6666V7.29171H14.5833ZM3.12492 22.9167H15.6249V20.8334H3.12492V22.9167ZM15.6249 22.9167H21.8749V20.8334H15.6249V22.9167ZM20.8333 8.95838V21.875H22.9166V8.95838H20.8333ZM15.6249 8.33338H20.2083V6.25005H15.6249V8.33338ZM6.24992 8.33338H7.29159V6.25005H6.24992V8.33338ZM11.4583 8.33338H12.4999V6.25005H11.4583V8.33338ZM6.24992 11.4584H7.29159V9.37505H6.24992V11.4584ZM11.4583 11.4584H12.4999V9.37505H11.4583V11.4584ZM6.24992 14.5834H7.29159V12.5H6.24992V14.5834ZM11.4583 14.5834H12.4999V12.5H11.4583V14.5834ZM10.4166 18.75V21.875H12.4999V18.75H10.4166ZM11.4583 20.8334H7.29159V22.9167H11.4583V20.8334ZM8.33326 21.875V18.75H6.24992V21.875H8.33326ZM9.37492 17.7084C9.95022 17.7084 10.4166 18.1747 10.4166 18.75H12.4999C12.4999 17.0241 11.1009 15.625 9.37492 15.625V17.7084ZM9.37492 15.625C7.64904 15.625 6.24992 17.0241 6.24992 18.75H8.33326C8.33326 18.1747 8.79963 17.7084 9.37492 17.7084V15.625ZM18.7499 12.5H18.7603V10.4167H18.7499V12.5ZM18.7499 15.625H18.7603V13.5417H18.7499V15.625ZM18.7499 18.75H18.7603V16.6667H18.7499V18.75ZM22.9166 8.95838C22.9166 8.68387 22.9174 8.41535 22.899 8.18939C22.8795 7.95128 22.8336 7.6703 22.6895 7.38757L20.8333 8.33338C20.8027 8.27347 20.8136 8.24975 20.8225 8.35904C20.8324 8.48048 20.8333 8.64949 20.8333 8.95838H22.9166ZM20.2083 8.33338C20.5171 8.33338 20.6862 8.33419 20.8076 8.34411C20.9169 8.35303 20.8932 8.3639 20.8333 8.33338L21.7791 6.47712C21.4964 6.33306 21.2153 6.28715 20.9772 6.2677C20.7513 6.24923 20.4827 6.25005 20.2083 6.25005V8.33338ZM22.6895 7.38757C22.4898 6.99557 22.1711 6.67685 21.7791 6.47712L20.8333 8.33338L22.6895 7.38757ZM13.9583 4.16671C14.2671 4.16671 14.4362 4.16753 14.5576 4.17744C14.6669 4.18637 14.6432 4.19723 14.5833 4.16671L15.5291 2.31045C15.2464 2.16639 14.9653 2.12048 14.7272 2.10104C14.5013 2.08257 14.2327 2.08338 13.9583 2.08338V4.16671ZM16.6666 4.79171C16.6666 4.5172 16.6674 4.24868 16.649 4.02272C16.6295 3.78461 16.5836 3.50363 16.4395 3.2209L14.5833 4.16671C14.5527 4.10681 14.5636 4.08309 14.5725 4.19237C14.5824 4.31382 14.5833 4.48283 14.5833 4.79171H16.6666ZM14.5833 4.16671L16.4395 3.2209C16.2398 2.8289 15.9211 2.51018 15.5291 2.31045L14.5833 4.16671ZM4.16659 4.79171C4.16659 4.48283 4.1674 4.31382 4.17732 4.19237C4.18625 4.08309 4.19711 4.10681 4.16659 4.16671L2.31033 3.2209C2.16627 3.50363 2.12036 3.78461 2.10091 4.02272C2.08244 4.24868 2.08326 4.5172 2.08326 4.79171H4.16659ZM4.79159 2.08338C4.51708 2.08338 4.24856 2.08257 4.0226 2.10104C3.78449 2.12048 3.50351 2.16639 3.22078 2.31045L4.16659 4.16671C4.10668 4.19723 4.08297 4.18637 4.19225 4.17744C4.31369 4.16753 4.4827 4.16671 4.79159 4.16671V2.08338ZM4.16659 4.16671L3.22078 2.31045C2.82877 2.51018 2.51006 2.82889 2.31033 3.2209L4.16659 4.16671Z" fill="#2A5389"/>
</svg>
